<?xml version="1.0" encoding="UTF-8"?>
<svg id="Layer_1" xmlns="http://www.w3.org/2000/svg" version="1.1" viewBox="0 0 740.7 473.9">
  <!-- Generator: Adobe Illustrator 29.0.1, SVG Export Plug-In . SVG Version: 2.1.0 Build 192)  -->
  <defs>
    <style>
      .st0 {
        fill: #2f2e41;
      }

      .st1 {
        fill: #fff;
      }

      .st2 {
        fill: #3f3d56;
      }

      .st3 {
        fill: #ffb8b8;
      }

      .st4 {
        fill: #2779ff;
      }

      .st5 {
        fill: #a0616a;
      }

      .st6 {
        fill: #f2f2f2;
        isolation: isolate;
      }

      .st7 {
        fill: #ccc;
      }

      .st8 {
        fill: #e6e6e6;
      }
    </style>
  </defs>
  <path class="st2" d="M111.5,129.4c1.2-13.3,4.6-26.3,10.1-38.5,1.5-3.4,3.2-6.7,5-10,.2-.4,0-.8-.3-1-.3-.2-.8,0-1,.3-6.6,11.8-11.3,24.7-13.8,38-.7,3.7-1.2,7.5-1.6,11.2,0,1,1.4.9,1.5,0Z"/>
  <circle class="st4" cx="130.2" cy="73.9" r="9.4"/>
  <path class="st2" d="M112.5,129.7c.8-8.6,3-17.1,6.6-25,1-2.2,2.1-4.4,3.3-6.5.1-.2,0-.5-.2-.7-.2-.1-.5,0-.6.2-4.3,7.7-7.3,16-8.9,24.6-.4,2.4-.8,4.8-1,7.3,0,.6.9.6,1,0Z"/>
  <circle class="st4" cx="120.8" cy="93.2" r="6.1"/>
  <path class="st2" d="M111.3,129.1c-4.7-7.3-8.1-15.3-10.2-23.7-.6-2.3-1-4.7-1.4-7.1,0-.3-.3-.4-.6-.4-.3,0-.4.3-.4.5,1.3,8.7,4.1,17.1,8.1,24.9,1.1,2.2,2.4,4.3,3.7,6.4.3.5,1.1,0,.8-.6Z"/>
  <circle class="st4" cx="98.7" cy="93.2" r="6.1"/>
  <path class="st7" d="M92.5,134.5v-12c0-2.5,2-4.5,4.5-4.5h28c2.5,0,4.5,2,4.5,4.5v12c0,2.5-2,4.5-4.5,4.5h-28c-2.5,0-4.5-2-4.5-4.5Z"/>
  <path class="st6" d="M124,58h-12c-2.5,0-4.5-2-4.5-4.5V4.5C107.5,2,109.5,0,112,0h12c2.5,0,4.5,2,4.5,4.5v49c0,2.5-2,4.5-4.5,4.5Z"/>
  <rect class="st7" x="108" y="9.5" width="20" height="4"/>
  <rect class="st7" x="108" y="40.5" width="20" height="4"/>
  <path class="st6" d="M154,58h-12c-2.5,0-4.5-2-4.5-4.5V4.5C137.5,2,139.5,0,142,0h12c2.5,0,4.5,2,4.5,4.5v49c0,2.5-2,4.5-4.5,4.5Z"/>
  <rect class="st7" x="138" y="9.5" width="20" height="4"/>
  <rect class="st7" x="138" y="40.5" width="20" height="4"/>
  <path class="st6" d="M184,58h-12c-2.5,0-4.5-2-4.5-4.5V4.5C167.5,2,169.5,0,172,0h12c2.5,0,4.5,2,4.5,4.5v49c0,2.5-2,4.5-4.5,4.5Z"/>
  <rect class="st7" x="168" y="9.5" width="20" height="4"/>
  <rect class="st7" x="168" y="40.5" width="20" height="4"/>
  <path class="st6" d="M200,139h-12c-2.5,0-4.5-2-4.5-4.5v-49c0-2.5,2-4.5,4.5-4.5h12c2.5,0,4.5,2,4.5,4.5v49c0,2.5-2,4.5-4.5,4.5Z"/>
  <rect class="st7" x="184" y="90.5" width="20" height="4"/>
  <rect class="st7" x="184" y="121.5" width="20" height="4"/>
  <path class="st6" d="M230,139h-12c-2.5,0-4.5-2-4.5-4.5v-49c0-2.5,2-4.5,4.5-4.5h12c2.5,0,4.5,2,4.5,4.5v49c0,2.5-2,4.5-4.5,4.5Z"/>
  <rect class="st7" x="214" y="90.5" width="20" height="4"/>
  <rect class="st7" x="214" y="121.5" width="20" height="4"/>
  <path class="st6" d="M260,139h-12c-2.5,0-4.5-2-4.5-4.5v-49c0-2.5,2-4.5,4.5-4.5h12c2.5,0,4.5,2,4.5,4.5v49c0,2.5-2,4.5-4.5,4.5Z"/>
  <rect class="st7" x="244" y="90.5" width="20" height="4"/>
  <rect class="st7" x="244" y="121.5" width="20" height="4"/>
  <path class="st6" d="M121,220h-12c-2.5,0-4.5-2-4.5-4.5v-49c0-2.5,2-4.5,4.5-4.5h12c2.5,0,4.5,2,4.5,4.5v49c0,2.5-2,4.5-4.5,4.5Z"/>
  <rect class="st7" x="105" y="171.5" width="20" height="4"/>
  <rect class="st7" x="105" y="202.5" width="20" height="4"/>
  <path class="st6" d="M151,220h-12c-2.5,0-4.5-2-4.5-4.5v-49c0-2.5,2-4.5,4.5-4.5h12c2.5,0,4.5,2,4.5,4.5v49c0,2.5-2,4.5-4.5,4.5Z"/>
  <rect class="st7" x="135" y="171.5" width="20" height="4"/>
  <rect class="st7" x="135" y="202.5" width="20" height="4"/>
  <path class="st6" d="M181,220h-12c-2.5,0-4.5-2-4.5-4.5v-49c0-2.5,2-4.5,4.5-4.5h12c2.5,0,4.5,2,4.5,4.5v49c0,2.5-2,4.5-4.5,4.5Z"/>
  <rect class="st7" x="165" y="171.5" width="20" height="4"/>
  <rect class="st7" x="165" y="202.5" width="20" height="4"/>
  <path class="st6" d="M214,58h-12c-2.5,0-4.5-2-4.5-4.5V4.5C197.5,2,199.5,0,202,0h12c2.5,0,4.5,2,4.5,4.5v49c0,2.5-2,4.5-4.5,4.5Z"/>
  <rect class="st7" x="198" y="9.5" width="20" height="4"/>
  <rect class="st7" x="198" y="40.5" width="20" height="4"/>
  <path class="st6" d="M244,58h-12c-2.5,0-4.5-2-4.5-4.5V4.5C227.5,2,229.5,0,232,0h12c2.5,0,4.5,2,4.5,4.5v49c0,2.5-2,4.5-4.5,4.5Z"/>
  <rect class="st7" x="228" y="9.5" width="20" height="4"/>
  <rect class="st7" x="228" y="40.5" width="20" height="4"/>
  <path class="st6" d="M274,58h-12c-2.5,0-4.5-2-4.5-4.5V4.5c0-2.5,2-4.5,4.5-4.5h12c2.5,0,4.5,2,4.5,4.5v49c0,2.5-2,4.5-4.5,4.5Z"/>
  <rect class="st7" x="258" y="9.5" width="20" height="4"/>
  <rect class="st7" x="258" y="40.5" width="20" height="4"/>
  <path class="st6" d="M304,58h-12c-2.5,0-4.5-2-4.5-4.5V4.5c0-2.5,2-4.5,4.5-4.5h12c2.5,0,4.5,2,4.5,4.5v49c0,2.5-2,4.5-4.5,4.5Z"/>
  <rect class="st7" x="288" y="9.5" width="20" height="4"/>
  <rect class="st7" x="288" y="40.5" width="20" height="4"/>
  <path class="st7" d="M348.9,59.5H63.9c-.6,0-1-.4-1-1s.4-1,1-1h285c.6,0,1,.4,1,1s-.4,1-1,1Z"/>
  <path class="st7" d="M348.9,140.5H63.9c-.6,0-1-.4-1-1s.4-1,1-1h285c.6,0,1,.4,1,1s-.4,1-1,1Z"/>
  <path class="st7" d="M348.9,221.5H63.9c-.6,0-1-.4-1-1s.4-1,1-1h285c.6,0,1,.4,1,1s-.4,1-1,1Z"/>
  <path class="st7" d="M332.1,378.5c0-7.7-29.1-14-65-14s-65,6.3-65,14,12,9.3,30,11.8v76.7c0,3.6,2.9,6.5,6.5,6.5s6.5-2.9,6.5-6.5v-75.3c6.9.5,14.3.8,22,.8s15.1-.3,22-.8v75.3c0,3.6,2.9,6.5,6.5,6.5s6.5-2.9,6.5-6.5v-76.7c18-2.5,30-6.8,30-11.8Z"/>
  <polygon class="st5" points="319.6 460.9 331.8 460.9 337.7 413.6 319.6 413.6 319.6 460.9"/>
  <path class="st0" d="M355.5,472.3h-38.5s0-14.9,0-14.9h23.6c8.2,0,14.9,6.7,14.9,14.9h0Z"/>
  <polygon class="st5" points="338.7 454.1 350.4 450.4 341.8 403.5 324.5 408.9 338.7 454.1"/>
  <path class="st0" d="M376.4,454.2l-36.8,11.5h0l-4.5-14.2h0l22.6-7.1c7.8-2.5,16.2,1.9,18.7,9.7h0Z"/>
  <path class="st0" d="M330.5,432.3l-22.4-58.9c-5,1.2-47.2,10.5-61.4-4.5-4.8-5.2-5.8-12.6-2.8-22.2l8.2-10.4h.3c3.1.2,76.4,4.3,81.5,26.4,4.2,18.6,12,53.4,14.2,63.6.5,2.2-.7,4.4-2.8,5.2l-9,3.4c-.5.2-1,.3-1.6.3-1.9,0-3.5-1.2-4.2-2.9Z"/>
  <path class="st0" d="M317.5,439.3l-22.4-58.9c-5,1.2-47.2,10.5-61.4-4.5-4.8-5.2-5.8-12.6-2.8-22.2l8.2-10.4h.3c3.1.2,76.4,4.3,81.5,26.4,4.2,18.6,12,53.4,14.2,63.6.5,2.2-.7,4.4-2.8,5.2l-9,3.4c-.5.2-1,.3-1.6.3-1.9,0-3.5-1.2-4.2-2.9Z"/>
  <path class="st5" d="M347.8,298.2c-.3.4-.6.9-.9,1.4l-49.3,5.2-7.1-9.7-16.1,8.8,13.9,23.6,60.5-15.4c4.2,4,10.8,4,14.8-.2,4-4.2,4-10.8-.2-14.8s-10.8-4-14.8.2c-.3.3-.6.6-.8,1h0Z"/>
  <path class="st4" d="M230.6,356.8c-1.4-1-2.1-2.7-1.8-4.3,2.8-18.3-.4-44.6-3.6-63.4-2.3-13.5,6.8-26.3,20.3-28.6,2.4-.4,4.9-.5,7.3-.2,3.3.4,6.7,1.1,9.9,2h0c11.2,2.8,18.9,13,18.6,24.5-.5,18.2,3.2,40.8,4.8,49.7.2,1.2,0,2.5-.8,3.5-.7,1-1.9,1.6-3.1,1.8-17.8,1.8-37,10.5-46.9,15.5-.6.3-1.3.5-2,.5-.9,0-1.9-.3-2.6-.9Z"/>
  <path class="st4" d="M278.7,309.5c-1.1-.4-2-1.3-2.5-2.4l-9.9-22.9c-2.5-5.8.2-12.6,6-15.1,5.8-2.5,12.6.2,15.1,6l9.9,22.9c1,2.3,0,4.9-2.3,5.9l-12.8,5.6c-1.1.5-2.3.5-3.4,0h0Z"/>
  <path class="st5" d="M300.8,296.2c-.3.4-.6.9-.9,1.4l-49.3,5.2-7.1-9.7-16.1,8.8,13.9,23.6,60.5-15.4c4.2,4,10.8,4,14.8-.2,4-4.2,4-10.8-.2-14.8s-10.8-4-14.8.2c-.3.3-.6.6-.8,1h0Z"/>
  <path class="st4" d="M231.7,310.5c-1.1-.4-2-1.3-2.5-2.4l-9.9-22.9c-2.5-5.8.1-12.6,6-15.1,5.8-2.5,12.6.1,15.1,6,0,0,0,0,0,0l9.9,22.9c1,2.3,0,4.9-2.3,5.9l-12.8,5.6c-1.1.5-2.3.5-3.4,0h0Z"/>
  <circle class="st5" cx="250.9" cy="227.9" r="24.6"/>
  <path class="st0" d="M233.3,244.7c-.4-1.1.2-2.3,1.3-2.7.2,0,.3,0,.5-.1,1.3,0,2.6.7,3.5,1.7.9,1,1.9,1.9,3.1,2.6,1.2.6,2.8.5,3.5-.6.6-1.1.2-2.5-.2-3.8-1-3.2-1.5-6.5-1.6-9.8-.1-3.7.4-7.6,2.5-10.4,2.6-3.7,7.4-5.1,11.8-5s8.9,1.5,13.3,2.4c1.5.3,3.3.5,4.4-.7,1.1-1.3.7-3.3.2-5-1.2-4.4-2.5-9-5.3-12.6-3-3.7-7.3-6.1-12.1-6.8-4.5-.6-9.2,0-13.5,1.5-7,2.2-13.2,6.5-17.7,12.3-4.6,6.2-6.6,13.9-5.6,21.6,1,6.7,4.6,12.7,9.9,16.9l1.9-1.5Z"/>
  <path class="st2" d="M139.6,303.9c1.2-13.3,4.6-26.3,10.1-38.5,1.5-3.4,3.2-6.7,5-10,.2-.4,0-.8-.3-1-.3-.2-.8,0-1,.3-6.6,11.8-11.3,24.7-13.8,38-.7,3.7-1.2,7.5-1.6,11.2,0,1,1.4.9,1.5,0Z"/>
  <circle class="st4" cx="158.3" cy="248.4" r="9.4"/>
  <path class="st2" d="M140.5,304.1c.8-8.6,3-17.1,6.6-25,1-2.2,2.1-4.4,3.3-6.5.1-.2,0-.5-.2-.7-.2-.1-.5,0-.6.2-4.3,7.7-7.3,16-8.9,24.6-.4,2.4-.8,4.8-1,7.3,0,.6.9.6,1,0Z"/>
  <circle class="st4" cx="152.7" cy="268.1" r="6.1"/>
  <path class="st2" d="M139.3,303.5c-4.7-7.3-8.1-15.3-10.2-23.7-.6-2.3-1-4.7-1.4-7.1,0-.3-.3-.4-.6-.4-.3,0-.4.3-.4.5,1.3,8.7,4.1,17.1,8.1,24.9,1.1,2.2,2.4,4.3,3.7,6.4.3.5,1.1,0,.8-.6h0Z"/>
  <circle class="st4" cx="126.7" cy="267.7" r="6.1" transform="translate(-25.8 13.8) rotate(-5.7)"/>
  <path class="st7" d="M120.6,309v-12c0-2.5,2-4.5,4.5-4.5h28c2.5,0,4.5,2,4.5,4.5v12c0,2.5-2,4.5-4.5,4.5h-28c-2.5,0-4.5-2-4.5-4.5Z"/>
  <path class="st7" d="M292.6,305.5h79c1.9,0,3.5,1.6,3.5,3.5h0c0,1.9-1.6,3.5-3.5,3.5h-79c-1.9,0-3.5-1.6-3.5-3.5h0c0-1.9,1.6-3.5,3.5-3.5Z"/>
  <path class="st7" d="M424.6,312.5h-89c-3.6,0-6.5-2.9-6.5-6.5v-49c0-3.6,2.9-6.5,6.5-6.5h89c3.6,0,6.5,2.9,6.5,6.5v49c0,3.6-2.9,6.5-6.5,6.5Z"/>
  <circle class="st1" cx="380.1" cy="281.5" r="6"/>
  <path class="st7" d="M651.1,378.5c0-7.7-29.1-14-65-14s-65,6.3-65,14,12,9.3,30,11.8v76.7c0,3.6,2.9,6.5,6.5,6.5s6.5-2.9,6.5-6.5v-75.3c6.9.5,14.3.8,22,.8s15.1-.3,22-.8v75.3c0,3.6,2.9,6.5,6.5,6.5s6.5-2.9,6.5-6.5v-76.7c18-2.5,30-6.8,30-11.8Z"/>
  <circle class="st0" cx="593.3" cy="222.3" r="28"/>
  <polygon class="st3" points="523.6 461.9 511.3 461.9 505.5 414.6 523.6 414.6 523.6 461.9"/>
  <path class="st0" d="M502.6,458.4h23.6v14.9h-38.5c0-8.2,6.7-14.9,14.9-14.9h0Z"/>
  <polygon class="st3" points="504.4 455.1 492.7 451.4 501.3 404.5 518.6 409.9 504.4 455.1"/>
  <path class="st0" d="M485.4,445.4l22.6,7.1h0l-4.5,14.2h0l-36.8-11.5h0c2.5-7.8,10.8-12.2,18.7-9.7Z"/>
  <path class="st0" d="M508.4,436.2c-.5,0-1.1,0-1.6-.3l-9-3.4c-2.1-.8-3.3-3-2.8-5.2,2.3-10.2,10-45,14.2-63.6,5-22.1,78.3-26.2,81.5-26.4h.3s8.2,10.4,8.2,10.4c3,9.6,2,17.1-2.8,22.2-14.1,15-56.3,5.7-61.4,4.5l-22.4,58.9c-.7,1.7-2.3,2.9-4.2,2.9Z"/>
  <path class="st0" d="M521.4,443.2c-.5,0-1.1,0-1.6-.3l-9-3.4c-2.1-.8-3.3-3-2.8-5.2,2.3-10.2,10-45,14.2-63.6,5-22.1,78.3-26.2,81.5-26.4h.3s8.2,10.4,8.2,10.4c3,9.6,2,17.1-2.8,22.2-14.1,15-56.3,5.7-61.4,4.5l-22.4,58.9c-.7,1.7-2.3,2.9-4.2,2.9Z"/>
  <path class="st3" d="M495.3,299.2c.3.4.6.9.9,1.4l49.3,5.2,7.1-9.7,16.1,8.8-13.9,23.6-60.5-15.4c-4.2,4-10.8,4-14.8-.2s-4-10.8.2-14.8,10.8-4,14.8.2c.3.3.6.6.8,1h0Z"/>
  <path class="st4" d="M609.9,358.7c-.7,0-1.4-.2-2-.5-9.9-5-29.1-13.7-46.9-15.5-1.2-.1-2.4-.8-3.1-1.8-.8-1-1.1-2.3-.8-3.5,1.6-8.9,5.3-31.5,4.8-49.7-.3-11.5,7.4-21.7,18.6-24.5h0c3.3-.9,6.6-1.5,9.9-2,13.6-1.7,26,7.9,27.7,21.5.3,2.4.3,4.9-.2,7.3-3.2,18.8-6.4,45.1-3.6,63.4.3,1.7-.4,3.4-1.8,4.3-.8.6-1.7.9-2.6.9Z"/>
  <path class="st4" d="M562.8,310.8c-.6,0-1.2-.1-1.8-.4l-12.8-5.6c-2.3-1-3.3-3.6-2.3-5.9l9.9-22.9c2.5-5.8,9.3-8.5,15.1-6,5.8,2.5,8.5,9.3,6,15.1,0,0,0,0,0,0l-9.9,22.9c-.7,1.6-2.3,2.7-4.1,2.7h0Z"/>
  <circle class="st3" cx="592.2" cy="228.9" r="24.6"/>
  <path class="st0" d="M567.2,216.8c11.6,7.1,24.7,11.4,38.3,12.6l-4-4.8c2.9,1.1,6,1.7,9.2,1.8,3.1,0,6.4-1.3,8.2-3.8,1.6-2.6,1.8-5.8.6-8.6-1.2-2.8-3.1-5.2-5.6-7-8.7-6.9-20.3-9-30.8-5.5-3.6,1.1-6.8,3.1-9.2,5.9-2.3,2.9-6.8,5.4-5.6,8.9l-1,.5Z"/>
  <path class="st0" d="M596.4,197c-7.7-7.9-17.1-13.9-27.5-17.8-6.6-2.5-13.9-4-20.8-2.6s-13.5,6.2-15.4,13c-1.6,5.6,0,11.6,2.5,16.8s5.7,10.1,7.7,15.5c6.7,18.4-2.7,38.8-21.1,45.5-4.7,1.7-9.6,2.4-14.5,2.1,6.8.9,13.1,4.1,19.8,5.8s14.5,1.6,19.5-3.2c5.2-5.1,5.3-13.3,5.1-20.5l-1.1-32.4c-.2-5.5-.4-11.2,1.6-16.4s6.7-9.7,12.2-9.6c4.2,0,7.9,2.6,11.2,5.1s6.9,5.2,11.1,5.5,8.9-2.7,8.6-6.9"/>
  <polygon class="st8" points="482.2 281.1 538.8 282.4 546.9 342.9 494.7 344 482.2 281.1"/>
  <path class="st3" d="M542.3,297.2c.3.4.6.9.9,1.4l49.3,5.2,7.1-9.7,16.1,8.8-13.9,23.6-60.5-15.4c-4.2,4-10.8,4-14.8-.2s-4-10.8.2-14.8,10.8-4,14.8.2c.3.3.6.6.8,1h0Z"/>
  <path class="st4" d="M609.8,311.8c-.6,0-1.2-.1-1.8-.4l-12.8-5.6c-2.3-1-3.3-3.6-2.3-5.9l9.9-22.9c2.5-5.8,9.3-8.5,15.1-6,5.8,2.5,8.5,9.3,6,15.1,0,0,0,0,0,0l-9.9,22.9c-.7,1.6-2.3,2.7-4.1,2.7h0Z"/>
  <path class="st2" d="M493.6,311.5H95.6c-3.6,0-6.5,2.9-6.5,6.5s2.9,6.5,6.5,6.5h11.5v141.5c0,3.6,2.9,6.5,6.5,6.5s6.5-2.9,6.5-6.5v-129l72.9,132.1c1.8,3.1,5.8,4.2,8.9,2.4,3.1-1.8,4.2-5.8,2.4-8.9l-76.2-138.1h348c0,0-76.1,138.1-76.1,138.1-1.8,3.1-.7,7.1,2.4,8.9s7.1.7,8.9-2.4h0l64.9-117.6v114.5c0,3.6,2.9,6.5,6.5,6.5s6.5-2.9,6.5-6.5v-138.1l1.9-3.4h2.6c3.6,0,6.5-2.9,6.5-6.5s-2.9-6.5-6.5-6.5h0Z"/>
  <path class="st2" d="M739.5,473.9H1.2c-.7,0-1.2-.5-1.2-1.2,0-.7.5-1.2,1.2-1.2h738.3c.7,0,1.2.5,1.2,1.2,0,.7-.5,1.2-1.2,1.2Z"/>
</svg>